<svg width="779" height="694" viewBox="0 0 779 694" fill="none" xmlns="http://www.w3.org/2000/svg">
<mask id="path-1-inside-1_346_226" fill="white">
<path fill-rule="evenodd" clip-rule="evenodd" d="M778.869 0H403.39V209.187L0.00012207 694.444L366.145 693.026V692.787L226 693.5L353.749 534.68L778.869 0Z"/>
</mask>
<path d="M403.39 0V-1H402.39V0H403.39ZM778.869 0L779.652 0.622375L780.942 -1H778.869V0ZM403.39 209.187L404.159 209.827L404.39 209.549V209.187H403.39ZM0.00012207 694.444L-0.76886 693.805L-2.13849 695.453L0.00396729 695.444L0.00012207 694.444ZM366.145 693.026L366.149 694.026L367.145 694.023V693.026H366.145ZM366.145 692.787H367.145V691.782L366.14 691.787L366.145 692.787ZM226 693.5L225.221 692.873L223.904 694.511L226.005 694.5L226 693.5ZM353.749 534.68L354.528 535.307L354.532 535.303L353.749 534.68ZM403.39 1H778.869V-1H403.39V1ZM404.39 209.187V0H402.39V209.187H404.39ZM0.769104 695.084L404.159 209.827L402.621 208.548L-0.76886 693.805L0.769104 695.084ZM366.141 692.026L-0.00372314 693.444L0.00396729 695.444L366.149 694.026L366.141 692.026ZM365.145 692.787V693.026H367.145V692.787H365.145ZM366.14 691.787L225.995 692.5L226.005 694.5L366.15 693.787L366.14 691.787ZM226.779 694.127L354.528 535.307L352.97 534.054L225.221 692.873L226.779 694.127ZM778.086 -0.622375L352.966 534.058L354.532 535.303L779.652 0.622375L778.086 -0.622375Z" fill="#033F63" mask="url(#path-1-inside-1_346_226)"/>
</svg>
