<svg width="779" height="695" viewBox="0 0 779 695" fill="none" xmlns="http://www.w3.org/2000/svg">
<mask id="path-1-inside-1_346_223" fill="white">
<path fill-rule="evenodd" clip-rule="evenodd" d="M0 694.444H375.479V485.257L778.869 0L551.683 0.87975L478.32 92.085L478.93 92.086L0 694.444Z"/>
</mask>
<path d="M375.479 694.444V695.444H376.479V694.444H375.479ZM0 694.444L-0.782739 693.822L-2.07266 695.444H0V694.444ZM375.479 485.257L374.71 484.618L374.479 484.896V485.257H375.479ZM778.869 0L779.638 0.639257L781.008 -1.00829L778.865 -0.999992L778.869 0ZM551.683 0.87975L551.679 -0.120243L551.202 -0.118397L550.903 0.252982L551.683 0.87975ZM478.32 92.085L477.541 91.4582L476.235 93.0816L478.318 93.085L478.32 92.085ZM478.93 92.086L479.713 92.7084L481 91.0893L478.932 91.086L478.93 92.086ZM375.479 693.444H0V695.444H375.479V693.444ZM374.479 485.257V694.444H376.479V485.257H374.479ZM778.1 -0.639257L374.71 484.618L376.248 485.896L779.638 0.639257L778.1 -0.639257ZM551.686 1.87974L778.873 0.999992L778.865 -0.999992L551.679 -0.120243L551.686 1.87974ZM550.903 0.252982L477.541 91.4582L479.099 92.7118L552.462 1.50652L550.903 0.252982ZM478.932 91.086L478.322 91.085L478.318 93.085L478.928 93.086L478.932 91.086ZM0.782739 695.067L479.713 92.7084L478.147 91.4636L-0.782739 693.822L0.782739 695.067Z" fill="#033F63" mask="url(#path-1-inside-1_346_223)"/>
</svg>
